<svg width="17" height="10" viewBox="0 0 17 10" fill="none" xmlns="http://www.w3.org/2000/svg">
<g clip-path="url(#clip0_1082_1173)">
<path fill-rule="evenodd" clip-rule="evenodd" d="M11.3598 0.694796C11.4217 0.632739 11.4953 0.583503 11.5762 0.549909C11.6572 0.516315 11.744 0.499023 11.8316 0.499023C11.9193 0.499023 12.0061 0.516315 12.087 0.549909C12.168 0.583503 12.2415 0.632739 12.3034 0.694796L16.3017 4.69306C16.3637 4.75496 16.413 4.8285 16.4466 4.90945C16.4802 4.99041 16.4975 5.0772 16.4975 5.16486C16.4975 5.25251 16.4802 5.3393 16.4466 5.42026C16.413 5.50121 16.3637 5.57475 16.3017 5.63665L12.3034 9.63491C12.1783 9.76004 12.0086 9.83034 11.8316 9.83034C11.6547 9.83034 11.485 9.76004 11.3598 9.63491C11.2347 9.50979 11.1644 9.34008 11.1644 9.16312C11.1644 8.98616 11.2347 8.81645 11.3598 8.69132L14.8876 5.16486L11.3598 1.63839C11.2978 1.57649 11.2485 1.50295 11.2149 1.42199C11.1814 1.34103 11.1641 1.25424 11.1641 1.16659C11.1641 1.07894 11.1814 0.992149 11.2149 0.911191C11.2485 0.830233 11.2978 0.756697 11.3598 0.694796Z" fill="#295C7A"/>
<path fill-rule="evenodd" clip-rule="evenodd" d="M0.5 5.1654C0.5 4.98867 0.570208 4.81917 0.695178 4.6942C0.820147 4.56923 0.989643 4.49902 1.16638 4.49902H15.1603C15.337 4.49902 15.5065 4.56923 15.6315 4.6942C15.7565 4.81917 15.8267 4.98867 15.8267 5.1654C15.8267 5.34213 15.7565 5.51163 15.6315 5.6366C15.5065 5.76157 15.337 5.83178 15.1603 5.83178H1.16638C0.989643 5.83178 0.820147 5.76157 0.695178 5.6366C0.570208 5.51163 0.5 5.34213 0.5 5.1654Z" fill="#295C7A"/>
</g>
<defs>
<clipPath id="clip0_1082_1173">
<rect width="16" height="10" fill="white" transform="translate(0.5)"/>
</clipPath>
</defs>
</svg>
