<svg width="49" height="48" viewBox="0 0 49 48" fill="none" xmlns="http://www.w3.org/2000/svg">
<g clip-path="url(#clip0_1082_1199)">
<path d="M17.6225 6.07275H10.2188C9.86271 6.07275 9.57422 6.36133 9.57422 6.71729C9.57422 7.07324 9.86271 7.36182 10.2188 7.36182H17.6225C17.9786 7.36182 18.2671 7.07324 18.2671 6.71729C18.2671 6.36133 17.9785 6.07275 17.6225 6.07275Z" fill="#295C7A"/>
<path d="M17.6225 9.04688H10.2188C9.86271 9.04688 9.57422 9.33545 9.57422 9.69141C9.57422 10.0474 9.86271 10.3359 10.2188 10.3359H17.6225C17.9786 10.3359 18.2671 10.0474 18.2671 9.69141C18.2671 9.33545 17.9785 9.04688 17.6225 9.04688Z" fill="#295C7A"/>
<path d="M43.596 40.8862L29.9368 28.2291C30.5597 27.5387 31.1477 26.8414 31.695 26.141C32.7509 26.8808 34.2182 26.7833 35.1643 25.8438C36.2287 24.7867 36.2346 23.0696 35.1773 22.005L29.4893 16.2778C28.4346 15.2159 26.7124 15.2101 25.6504 16.2648C24.8175 17.0919 24.6345 18.3295 25.1029 19.3373C22.4978 21.3304 19.8412 23.9453 17.7504 26.6394C16.7653 26.1712 15.5218 26.3243 14.6733 27.1671C13.609 28.2242 13.6028 29.9413 14.6603 31.0059L20.3483 36.7329C21.4044 37.7963 23.1225 37.8034 24.1871 36.746C25.1327 35.8068 25.2403 34.339 24.5081 33.2788C25.2138 32.735 25.9169 32.1504 26.613 31.5305L39.1762 45.2757C40.0299 46.2096 41.4888 46.2457 42.3873 45.3532L43.6515 44.0976C44.5486 43.2068 44.5268 41.7487 43.596 40.8862ZM26.5588 17.1794C27.1178 16.6242 28.0221 16.6299 28.5747 17.1863L34.2628 22.9134C34.8178 23.4723 34.815 24.374 34.2559 24.9292C33.6982 25.4831 32.7938 25.4799 32.24 24.9223L26.5519 19.1952C25.9981 18.6376 26.0012 17.7333 26.5588 17.1794ZM25.8901 20.3581L30.7516 25.253C28.7676 27.8105 26.2025 30.3593 23.6265 32.3295L18.7651 27.4347C20.6982 24.9426 23.2526 22.3755 25.8901 20.3581ZM23.2788 35.8315C22.7203 36.3862 21.8182 36.3837 21.2629 35.8247L15.5749 30.0976C15.0197 29.5387 15.0227 28.6369 15.5818 28.0818C16.1402 27.5271 17.0424 27.5296 17.5976 28.0886L23.2857 33.8157C23.8396 34.3733 23.8365 35.2776 23.2788 35.8315ZM42.7432 43.1831L41.4789 44.4387C41.0903 44.8247 40.4777 44.7889 40.1277 44.406L27.562 30.658C27.815 30.4185 28.0672 30.1761 28.3175 29.9275C28.5694 29.6773 28.8151 29.4251 29.0579 29.1721L42.7198 41.8317C43.1092 42.1925 43.1228 42.806 42.7432 43.1831Z" fill="#295C7A"/>
<path d="M35.916 44.6809C35.796 44.7006 35.6728 44.7108 35.5497 44.7108H8.56537C7.33818 44.7108 6.33984 43.7123 6.33984 42.4852V5.51459C6.33984 4.28748 7.33818 3.28906 8.56537 3.28906H29.5695C29.6563 3.28906 29.7417 3.29774 29.8256 3.31184V7.72412C29.8256 9.6621 31.4023 11.2387 33.3402 11.2387H37.7525C37.7666 11.3227 37.7753 11.408 37.7753 11.4948V33.9864C37.7753 34.3423 38.0638 34.6309 38.4198 34.6309C38.7758 34.6309 39.0643 34.3423 39.0643 33.9864V11.4948C39.0643 10.7418 38.7711 10.034 38.2388 9.50157L31.5628 2.82569C31.0305 2.29322 30.3226 2 29.5695 2H8.56537C6.62748 2 5.05078 3.5767 5.05078 5.51459V42.4851C5.05078 44.423 6.62748 45.9997 8.56537 45.9997H35.5497C35.7429 45.9997 35.9369 45.9838 36.1262 45.9526C36.4774 45.8946 36.7151 45.5628 36.657 45.2115C36.599 44.8604 36.267 44.6222 35.916 44.6809ZM36.8638 9.94965H33.3402C32.113 9.94965 31.1147 8.95123 31.1147 7.72412V4.2006L36.8638 9.94965Z" fill="#295C7A"/>
</g>
<defs>
<clipPath id="clip0_1082_1199">
<rect width="39.3594" height="44" fill="white" transform="translate(5 2)"/>
</clipPath>
</defs>
</svg>
