<svg width="49" height="48" viewBox="0 0 49 48" fill="none" xmlns="http://www.w3.org/2000/svg">
<g clip-path="url(#clip0_1082_916)">
<path d="M17.2553 9.43994H8.5035C7.69355 9.43994 7.03711 10.0826 7.03711 10.8755C7.03711 11.6684 7.69355 12.311 8.5035 12.311H17.2553C18.0649 12.311 18.7217 11.6684 18.7217 10.8755C18.7217 10.0826 18.0649 9.43994 17.2553 9.43994Z" fill="#D0A144"/>
<path d="M17.2553 15.1826H8.5035C7.69355 15.1826 7.03711 15.8252 7.03711 16.6182C7.03711 17.4111 7.69355 18.0537 8.5035 18.0537H17.2553C18.0649 18.0537 18.7217 17.4111 18.7217 16.6182C18.7217 15.8252 18.0649 15.1826 17.2553 15.1826Z" fill="#D0A144"/>
<path d="M17.2553 20.9248H8.5035C7.69355 20.9248 7.03711 21.5674 7.03711 22.3604C7.03711 23.1533 7.69355 23.7959 8.5035 23.7959H17.2553C18.0649 23.7959 18.7217 23.1533 18.7217 22.3604C18.7217 21.5674 18.0649 20.9248 17.2553 20.9248Z" fill="#D0A144"/>
<path d="M17.2553 26.6675H8.5035C7.69355 26.6675 7.03711 27.3101 7.03711 28.103C7.03711 28.8959 7.69355 29.5386 8.5035 29.5386H17.2553C18.0649 29.5386 18.7217 28.8959 18.7217 28.103C18.7217 27.3101 18.0649 26.6675 17.2553 26.6675Z" fill="#D0A144"/>
<path d="M17.2553 32.5063H8.5035C7.69355 32.5063 7.03711 33.1494 7.03711 33.9419C7.03711 34.7348 7.69355 35.3774 8.5035 35.3774H17.2553C18.0649 35.3774 18.7217 34.7348 18.7217 33.9419C18.7217 33.1494 18.0649 32.5063 17.2553 32.5063Z" fill="#D0A144"/>
<path d="M22.1812 12.311H30.933C31.743 12.311 32.3994 11.6684 32.3994 10.8755C32.3994 10.0826 31.743 9.43994 30.933 9.43994H22.1812C21.3717 9.43994 20.7148 10.0826 20.7148 10.8755C20.7148 11.6684 21.3717 12.311 22.1812 12.311Z" fill="#D0A144"/>
<path d="M22.1812 18.0537H30.933C31.743 18.0537 32.3994 17.4111 32.3994 16.6182C32.3994 15.8252 31.743 15.1826 30.933 15.1826H22.1812C21.3717 15.1826 20.7148 15.8252 20.7148 16.6182C20.7148 17.4111 21.3717 18.0537 22.1812 18.0537Z" fill="#D0A144"/>
<path d="M27.8628 22.3604C27.8628 21.5674 27.2063 20.9248 26.3964 20.9248H22.1812C21.3717 20.9248 20.7148 21.5674 20.7148 22.3604C20.7148 23.1533 21.3717 23.7959 22.1812 23.7959H26.3964C27.2063 23.7959 27.8628 23.1533 27.8628 22.3604Z" fill="#D0A144"/>
<path d="M41.7532 33.1118C41.1216 32.6157 40.199 32.7147 39.6918 33.3331L35.9151 37.9425L33.5769 36.2842C32.9212 35.8187 32.0039 35.9623 31.5289 36.6042C31.0538 37.2464 31.2005 38.144 31.8561 38.6091L35.3247 41.0693C35.5844 41.2533 35.8853 41.3426 36.1843 41.3426C36.6147 41.3426 37.0401 41.1575 37.3288 40.805L41.9796 35.1297C42.4864 34.5114 42.3852 33.6078 41.7532 33.1118Z" fill="#D0A144"/>
<path d="M45.4596 28.7053C43.5495 26.8025 41.0952 25.6032 38.4358 25.2499V5.78144C38.4358 2.5937 35.7864 0 32.5302 0H6.90606C3.64944 0 1 2.5937 1 5.78144V39.0357C1 42.2238 3.64944 44.8175 6.90568 44.8175H27.515C29.8341 47.4845 33.1687 49 36.7762 49C43.4915 49 48.9546 43.6481 48.9546 37.0696C48.9546 33.9204 47.7135 30.9499 45.4596 28.7053V28.7053ZM3.93279 39.0357V5.78144C3.93279 4.17692 5.26668 2.87109 6.90606 2.87109H32.5302C34.1696 2.87109 35.5031 4.17692 35.5031 5.78144V25.2043C29.3839 25.8298 24.5979 30.9121 24.5979 37.0696C24.5979 38.7762 24.9614 40.4263 25.6587 41.946H6.90606C5.26668 41.946 3.93279 40.6406 3.93279 39.0357ZM36.7762 46.1289C33.8476 46.1289 31.1554 44.8126 29.3893 42.518C28.1734 40.9378 27.5303 39.054 27.5303 37.0696C27.5303 32.0744 31.6782 28.0104 36.7762 28.0104C36.8243 28.0104 36.8728 28.0111 36.921 28.0119L36.9435 28.0122C39.3772 28.0545 41.6589 29.0152 43.3681 30.7177C45.0793 32.4221 46.0218 34.6782 46.0218 37.0696C46.0218 42.0649 41.8742 46.1289 36.7762 46.1289V46.1289Z" fill="#D0A144"/>
</g>
<defs>
<clipPath id="clip0_1082_916">
<rect width="48" height="48" fill="white" transform="translate(0.5)"/>
</clipPath>
</defs>
</svg>
