<svg width="26" height="26" viewBox="0 0 26 26" fill="none" xmlns="http://www.w3.org/2000/svg">
<g clip-path="url(#clip0_1716_416)">
<path d="M18.7289 2.84237L15.73 2.92305C14.4044 2.95871 13.1473 3.5195 12.2351 4.48206C11.323 5.44462 10.8306 6.7301 10.8663 8.0557L10.947 11.0546L7.94804 11.1353L8.05561 15.1338L11.0545 15.0532L11.2697 23.0503L15.2682 22.9427L15.0531 14.9456L18.052 14.8649L18.9441 10.8395L14.9455 10.947L14.8648 7.94813C14.8577 7.68301 14.9562 7.42592 15.1386 7.23341C15.321 7.04089 15.5725 6.92874 15.8376 6.9216L18.8365 6.84093L18.7289 2.84237Z" stroke="#FFFAF1" stroke-width="2" stroke-linecap="round" stroke-linejoin="round"/>
</g>
<defs>
<clipPath id="clip0_1716_416">
<rect width="24" height="24" fill="white" transform="translate(0.681641 1.32715) rotate(-1.54097)"/>
</clipPath>
</defs>
</svg>
