<svg xmlns="http://www.w3.org/2000/svg" width="500" height="500" viewBox="0 0 500 500">
  <title>brain</title>
  <g style="isolation: isolate">
    <g id="OBJECTS">
      <g>
        <path d="M192.95208,153.29216a52.07778,52.07778,0,0,0-38.56248,17.01342,27.55736,27.55736,0,0,0-34.13377,23.99412,48.10126,48.10126,0,0,0-32.7594,54.7275A52.204,52.204,0,0,0,79.033,337.09653,52.22815,52.22815,0,0,0,114.82522,404.868a27.53448,27.53448,0,0,0,33.5895,30.53953,52.18178,52.18178,0,0,0,44.53736,24.95293c47.94935,0,52.21744-41.65235,52.21744-41.65235V205.5096A52.21744,52.21744,0,0,0,192.95208,153.29216Z" style="fill: #34a562"/>
        <ellipse cx="187.78072" cy="204.93737" rx="31.80664" ry="27.4938" style="fill: #54cc85"/>
        <path d="M150.22875,315.07459a17.0225,17.0225,0,0,1-9.8911-16.45914q.03961-.84925.0399-1.70854A36.03533,36.03533,0,0,0,137.644,283.105a16.503,16.503,0,0,1,1.69011-15.6981c4.52-6.604,7.28918-15.49336,7.28918-25.272,0-20.387-12.03435-36.91372-26.8797-36.91372s-26.8797,16.52676-26.8797,36.91372a47.70672,47.70672,0,0,0,3.56334,18.35762C78.50539,263.37472,64.831,278.57672,64.831,296.90691c0,17.039,11.81642,31.37327,27.87537,35.62466a42.99409,42.99409,0,0,0-6.31165,22.45332c0,24.2775,20.13913,43.95841,44.98208,43.95841,24.84266,0,44.9818-19.68091,44.9818-43.95841A43.90153,43.90153,0,0,0,150.22875,315.07459Z" style="fill: #54cc85"/>
        <path d="M220.79683,193.58059a36.95469,36.95469,0,0,1,4.39709,17.87472V340.70194c0,55.35071-58.85688,91.40472-107.79784,65.55q-1.27652-.67427-2.57086-1.384v7.30036a27.51091,27.51091,0,0,0,33.5895,23.23917,52.18178,52.18178,0,0,0,44.53736,24.95293c47.94935,0,52.21744-41.65235,52.21744-41.65235V205.5096a52.215,52.215,0,0,0-90.77992-35.204S204.42722,163.90527,220.79683,193.58059Z" style="fill: #19773d"/>
        <path d="M133.33315,288.95869a25.26452,25.26452,0,0,0,25.22877,24.92653,3.24957,3.24957,0,0,0,0-6.49913,18.74553,18.74553,0,1,1,0-37.49106,3.24957,3.24957,0,0,0,0-6.49913,25.26645,25.26645,0,0,0-24.45278,19.08355,50.45765,50.45765,0,0,1-47.1397-37.0906c.13479,1.22579.30456,2.441.527,3.63835a52.18337,52.18337,0,0,0-5.19671,3.02343A56.97318,56.97318,0,0,0,133.33315,288.95869Z" style="fill: #d33939"/>
        <path d="M106.18066,332.4049a3.24941,3.24941,0,0,0,1.32651-6.362A38.29058,38.29058,0,0,0,75.291,333.89971c1.20011,1.11842,2.44071,2.194,3.742,3.19667-.34477.98073-.65107,1.97886-.93851,2.98512A31.82234,31.82234,0,0,1,106.18066,332.4049Z" style="fill: #d33939"/>
        <path d="M141.10319,395.49822a3.24971,3.24971,0,0,0,1.30488-6.36708,28.28666,28.28666,0,0,0-21.978,4.5815,28.96928,28.96928,0,0,1-9.77428-28.13568,3.24971,3.24971,0,1,0-6.36709-1.30487,35.42513,35.42513,0,0,0,11.23312,33.80381,28.3037,28.3037,0,0,0-3.9879,5.78625c1.08316.367,2.17765.70925,3.29128,1.00583a26.43791,26.43791,0,0,0,.17557,8.45128,3.22286,3.22286,0,0,0,.28308-.7876A21.90007,21.90007,0,0,1,141.10319,395.49822Z" style="fill: #d33939"/>
        <path d="M190.72771,396.90641a3.24956,3.24956,0,1,0,0-6.49912,45.13329,45.13329,0,0,0-45.08292,45.08249c0,.13755.01059.27453.01189.41208a28.01222,28.01222,0,0,0,2.758-.49435,52.37155,52.37155,0,0,0,4.17058,5.83007,38.51557,38.51557,0,0,1,38.14241-44.33117Z" style="fill: #d33939"/>
        <path d="M113.55053,229.91537a3.24956,3.24956,0,0,0,6.49911,0,19.30443,19.30443,0,0,1,6.73056-14.65121,31.91385,31.91385,0,0,0,21.53861,8.34057,3.24956,3.24956,0,0,0,0-6.49912,25.56664,25.56664,0,0,1-25.53812-25.53754,3.24475,3.24475,0,0,0-1.42051-2.68447,27.37158,27.37158,0,0,0-1.10435,5.4161q-1.88027.59527-3.69044,1.34a31.87138,31.87138,0,0,0,5.87432,14.78238A25.79687,25.79687,0,0,0,113.55053,229.91537Z" style="fill: #d33939"/>
        <path d="M175.78674,201.75763a40.89928,40.89928,0,0,0-15.42037,31.98994,3.24949,3.24949,0,1,0,6.499,0,34.5038,34.5038,0,0,1,34.46489-34.46489,3.24956,3.24956,0,1,0,0-6.49912,40.70972,40.70972,0,0,0-16.73106,3.58714,3.19189,3.19189,0,0,0-.37667-.038,27.11423,27.11423,0,0,1-27.08357-27.08357,3.21856,3.21856,0,0,0-.33024-1.4031c-.83.79659-1.64325,1.61016-2.41909,2.45957a27.59332,27.59332,0,0,0-3.73281-.658A33.6356,33.6356,0,0,0,175.78674,201.75763Z" style="fill: #d33939"/>
        <path d="M202.68458,329.57751a3.24969,3.24969,0,1,0-6.38986,1.18807,64.38506,64.38506,0,0,0,48.8748,50.98308v-6.6953A57.88488,57.88488,0,0,1,202.68458,329.57751Z" style="fill: #d33939"/>
        <path d="M210.37816,257.37532c-.4485,0-.89236.02452-1.3384.03845A16.6616,16.6616,0,0,1,225.387,237.33412a3.24956,3.24956,0,0,0,0-6.49912,23.15092,23.15092,0,0,0-22.83028,27.27524,41.32638,41.32638,0,0,0-25.553,15.96915,3.24965,3.24965,0,1,0,5.20047,3.89822,35.1912,35.1912,0,0,1,62.96535,15.805V276.13456A41.67717,41.67717,0,0,0,210.37816,257.37532Z" style="fill: #d33939"/>
        <path d="M218.66765,427.00875a16.71685,16.71685,0,0,1,3.5066-10.30085,3.2493,3.2493,0,1,0-5.14462-3.97049,23.372,23.372,0,0,0,11.19713,36.467,44.542,44.542,0,0,0,5.53015-5.397c-.04991-.008-.09562-.026-.1464-.03177A16.85521,16.85521,0,0,1,218.66765,427.00875Z" style="fill: #d33939"/>
        <path d="M307.04792,153.29216a52.07778,52.07778,0,0,1,38.56248,17.01342,27.55736,27.55736,0,0,1,34.13377,23.99412,48.10126,48.10126,0,0,1,32.7594,54.7275,52.204,52.204,0,0,1,8.46348,88.06933A52.22825,52.22825,0,0,1,385.17478,404.868a27.53448,27.53448,0,0,1-33.5895,30.53953,52.18178,52.18178,0,0,1-44.53736,24.95293c-47.94935,0-52.21744-41.65235-52.21744-41.65235V205.5096A52.21744,52.21744,0,0,1,307.04792,153.29216Z" style="fill: #34a562"/>
        <ellipse cx="312.21928" cy="204.93737" rx="31.80664" ry="27.4938" style="fill: #54cc85"/>
        <path d="M349.77125,315.07459a17.0225,17.0225,0,0,0,9.8911-16.45914q-.03961-.84925-.0399-1.70854A36.03533,36.03533,0,0,1,362.356,283.105a16.50288,16.50288,0,0,0-1.69011-15.6981c-4.52-6.604-7.28918-15.49336-7.28918-25.272,0-20.387,12.03435-36.91372,26.8797-36.91372s26.8797,16.52676,26.8797,36.91372a47.70672,47.70672,0,0,1-3.56334,18.35762c17.92188,2.88224,31.59629,18.08424,31.59629,36.41443,0,17.039-11.81642,31.37327-27.87537,35.62466a42.99409,42.99409,0,0,1,6.31165,22.45332c0,24.2775-20.13913,43.95841-44.98208,43.95841-24.84266,0-44.9818-19.68091-44.9818-43.95841A43.90153,43.90153,0,0,1,349.77125,315.07459Z" style="fill: #54cc85"/>
        <path d="M279.20317,193.58059a36.95466,36.95466,0,0,0-4.39706,17.87472V340.70194c0,55.35071,58.85685,91.40472,107.79781,65.55q1.27651-.67427,2.57086-1.384v7.30036a27.51091,27.51091,0,0,1-33.5895,23.23917,52.18178,52.18178,0,0,1-44.53736,24.95293c-47.94935,0-52.21744-41.65235-52.21744-41.65235V205.5096a52.215,52.215,0,0,1,90.77992-35.204S295.57278,163.90527,279.20317,193.58059Z" style="fill: #19773d"/>
        <path d="M261.32148,180.29157a51.9699,51.9699,0,0,0-6.491,25.21788V418.70809a50.04916,50.04916,0,0,0,6.491,18.21744Z" style="fill: #d33939;opacity: 0.48;mix-blend-mode: multiply"/>
        <path d="M293.93128,431.84867a3.24936,3.24936,0,1,0-6.2491,1.78385,31.81107,31.81107,0,0,1-2.22482,23.24309,54.07992,54.07992,0,0,0,6.34662,1.85494A38.31982,38.31982,0,0,0,293.93128,431.84867Z" style="fill: #195f29"/>
        <g>
          <g>
            <path d="M133.33315,288.95869a25.26452,25.26452,0,0,0,25.22877,24.92653,3.24957,3.24957,0,0,0,0-6.49913,18.74553,18.74553,0,1,1,0-37.49106,3.24957,3.24957,0,0,0,0-6.49913,25.26645,25.26645,0,0,0-24.45278,19.08355,50.45765,50.45765,0,0,1-47.1397-37.0906c.13479,1.22579.30456,2.441.527,3.63835a52.18337,52.18337,0,0,0-5.19671,3.02343A56.97318,56.97318,0,0,0,133.33315,288.95869Z" style="fill: #195f29"/>
            <path d="M106.18066,332.4049a3.24941,3.24941,0,0,0,1.32651-6.362A38.29058,38.29058,0,0,0,75.291,333.89971c1.20011,1.11842,2.44071,2.194,3.742,3.19667-.34477.98073-.65107,1.97886-.93851,2.98512A31.82234,31.82234,0,0,1,106.18066,332.4049Z" style="fill: #195f29"/>
            <path d="M141.10319,395.49822a3.24971,3.24971,0,0,0,1.30488-6.36708,28.28666,28.28666,0,0,0-21.978,4.5815,28.96928,28.96928,0,0,1-9.77428-28.13568,3.24971,3.24971,0,1,0-6.36709-1.30487,35.42513,35.42513,0,0,0,11.23312,33.80381,28.3037,28.3037,0,0,0-3.9879,5.78625c1.08316.367,2.17765.70925,3.29128,1.00583a26.43791,26.43791,0,0,0,.17557,8.45128,3.22286,3.22286,0,0,0,.28308-.7876A21.90007,21.90007,0,0,1,141.10319,395.49822Z" style="fill: #195f29"/>
            <path d="M190.72771,396.90641a3.24956,3.24956,0,1,0,0-6.49912,45.13329,45.13329,0,0,0-45.08292,45.08249c0,.13755.01059.27453.01189.41208a28.01222,28.01222,0,0,0,2.758-.49435,52.37155,52.37155,0,0,0,4.17058,5.83007,38.51557,38.51557,0,0,1,38.14241-44.33117Z" style="fill: #195f29"/>
            <path d="M113.55053,229.91537a3.24956,3.24956,0,0,0,6.49911,0,19.30443,19.30443,0,0,1,6.73056-14.65121,31.91385,31.91385,0,0,0,21.53861,8.34057,3.24956,3.24956,0,0,0,0-6.49912,25.56664,25.56664,0,0,1-25.53812-25.53754,3.24475,3.24475,0,0,0-1.42051-2.68447,27.37158,27.37158,0,0,0-1.10435,5.4161q-1.88027.59527-3.69044,1.34a31.87138,31.87138,0,0,0,5.87432,14.78238A25.79687,25.79687,0,0,0,113.55053,229.91537Z" style="fill: #195f29"/>
            <path d="M175.78674,201.75763a40.89928,40.89928,0,0,0-15.42037,31.98994,3.24949,3.24949,0,1,0,6.499,0,34.5038,34.5038,0,0,1,34.46489-34.46489,3.24956,3.24956,0,1,0,0-6.49912,40.70972,40.70972,0,0,0-16.73106,3.58714,3.19189,3.19189,0,0,0-.37667-.038,27.11423,27.11423,0,0,1-27.08357-27.08357,3.21856,3.21856,0,0,0-.33024-1.4031c-.83.79659-1.64325,1.61016-2.41909,2.45957a27.59332,27.59332,0,0,0-3.73281-.658A33.6356,33.6356,0,0,0,175.78674,201.75763Z" style="fill: #195f29"/>
            <path d="M202.68458,329.57751a3.24969,3.24969,0,1,0-6.38986,1.18807,64.38506,64.38506,0,0,0,48.8748,50.98308v-6.6953A57.88488,57.88488,0,0,1,202.68458,329.57751Z" style="fill: #195f29"/>
            <path d="M210.37816,257.37532c-.4485,0-.89236.02452-1.3384.03845A16.6616,16.6616,0,0,1,225.387,237.33412a3.24956,3.24956,0,0,0,0-6.49912,23.15092,23.15092,0,0,0-22.83028,27.27524,41.32638,41.32638,0,0,0-25.553,15.96915,3.24965,3.24965,0,1,0,5.20047,3.89822,35.1912,35.1912,0,0,1,62.96535,15.805V276.13456A41.67717,41.67717,0,0,0,210.37816,257.37532Z" style="fill: #195f29"/>
            <path d="M218.66765,427.00875a16.71685,16.71685,0,0,1,3.5066-10.30085,3.2493,3.2493,0,1,0-5.14462-3.97049,23.372,23.372,0,0,0,11.19713,36.467,44.542,44.542,0,0,0,5.53015-5.397c-.04991-.008-.09562-.026-.1464-.03177A16.85521,16.85521,0,0,1,218.66765,427.00875Z" style="fill: #195f29"/>
          </g>
          <path d="M353.08038,240.13642a25.26677,25.26677,0,0,0-30.35743-6.36781,3.24957,3.24957,0,0,0,2.86149,5.8353,18.74548,18.74548,0,1,1,16.50717,33.66133,3.2496,3.2496,0,1,0,2.86164,5.83529,25.26459,25.26459,0,0,0,11.67668-33.48837,56.90366,56.90366,0,0,0,29.783-48.61841,47.81884,47.81884,0,0,0-6.46836-2.62179A50.42746,50.42746,0,0,1,353.08038,240.13642Z" style="fill: #195f29"/>
          <path d="M420.66682,330.02441a35.42535,35.42535,0,0,0,3.97354-35.399,3.24976,3.24976,0,1,0-5.95776,2.59785A28.9691,28.9691,0,0,1,414.96,326.77478a28.28678,28.28678,0,0,0-22.45029.07922,3.2497,3.2497,0,1,0,2.59787,5.95762,21.89418,21.89418,0,0,1,27.03059,8.09114c-.34534-1.28819-.73261-2.55911-1.17124-3.80638,1.34523-1.03658,2.62774-2.14862,3.86456-3.30854A28.18577,28.18577,0,0,0,420.66682,330.02441Z" style="fill: #195f29"/>
          <path d="M309.76562,392.874a3.24956,3.24956,0,1,0,0,6.49912,38.62789,38.62789,0,0,1,38.584,38.58337c0,.74116-.04324,1.47943-.08807,2.21726a52.32731,52.32731,0,0,0,3.32378-4.76621,27.9106,27.9106,0,0,0,3.21263.55428A45.13335,45.13335,0,0,0,309.76562,392.874Z" style="fill: #195f29"/>
          <path d="M383.29953,262.89111a3.24959,3.24959,0,0,0-1.40383,6.34575,31.91447,31.91447,0,0,0,22.83173-3.49137,19.30456,19.30456,0,0,1,3.40708,15.759,3.24951,3.24951,0,1,0,6.34559,1.40383,25.79665,25.79665,0,0,0-4.46875-20.953,31.80409,31.80409,0,0,0,7.57212-9.97917,52.18363,52.18363,0,0,0-5.0799-2.949c.16383-.88118.29614-1.773.41295-2.66967A25.56416,25.56416,0,0,1,383.29953,262.89111Z" style="fill: #195f29"/>
          <path d="M394.01,372.25644a3.17215,3.17215,0,0,0,.23955-.29339,40.70589,40.70589,0,0,0,14.36711-9.29416,3.24956,3.24956,0,1,0-4.59557-4.59557,34.50343,34.50343,0,0,1-48.74058,0,3.24956,3.24956,0,1,0-4.59557,4.59557A40.89883,40.89883,0,0,0,384.209,374.38533a33.66647,33.66647,0,0,0,1.14294,35.80792c.03062-.53208.08067-1.05907.08067-1.59884a27.76194,27.76194,0,0,0-.25769-3.72643c1.30632-.34795,2.59045-.74973,3.85442-1.19416A27.12012,27.12012,0,0,1,394.01,372.25644Z" style="fill: #195f29"/>
          <path d="M303.70528,219.2728a3.24969,3.24969,0,1,0-6.38986-1.18807,57.88493,57.88493,0,0,1-42.48494,45.47572v6.69544A64.38508,64.38508,0,0,0,303.70528,219.2728Z" style="fill: #195f29"/>
          <path d="M289.62184,338.9995a34.92052,34.92052,0,0,1,28.174,14.10317,3.24971,3.24971,0,0,0,5.2005-3.89837,41.32777,41.32777,0,0,0-25.55308-15.96914,23.15,23.15,0,0,0-22.83028-27.2751,3.24956,3.24956,0,0,0,0,6.49912,16.66225,16.66225,0,0,1,16.34727,20.07965c-.446-.01393-.8899-.0386-1.3384-.0386a41.67731,41.67731,0,0,0-34.79136,18.75939V368.9077A35.24324,35.24324,0,0,1,289.62184,338.9995Z" style="fill: #195f29"/>
          <path d="M341.07446,187.09206a16.717,16.717,0,0,1-9.76326,4.80422,3.24934,3.24934,0,1,0,.83011,6.44544,23.36325,23.36325,0,0,0,19.66684-28.84986,27.61012,27.61012,0,0,0-6.19761.81372c-.14856-.16266-.30732-.31574-.45793-.47651A16.86164,16.86164,0,0,1,341.07446,187.09206Z" style="fill: #195f29"/>
        </g>
        <path d="M340.02119,92.1053h-5.643V53.30065A14.76442,14.76442,0,0,0,319.631,38.55222H306.25757V32.909H319.631a20.41352,20.41352,0,0,1,20.39015,20.39161Z" style="fill: #4f708e"/>
        <path d="M165.62112,92.1053h-5.643V53.30065A20.4143,20.4143,0,0,1,180.36969,32.909h14.95084v5.64318H180.36969a14.76483,14.76483,0,0,0-14.74857,14.74843Z" style="fill: #4f708e"/>
        <path d="M180.00941,36.82932c-9.755,0-16.2071,7.93574-16.2071,17.69074V92.1053h1.81881V53.30065a14.76483,14.76483,0,0,1,14.74857-14.74843h14.95084v-1.7229Z" style="fill: #112e49;opacity: 0.22;mix-blend-mode: multiply"/>
        <g>
          <path d="M195.72114,25.82822h3.40068a5.44309,5.44309,0,0,1,5.44309,5.44309v8.75294a5.44309,5.44309,0,0,1-5.44309,5.44309h-3.40068a1.94,1.94,0,0,1-1.94-1.94V27.76819A1.94,1.94,0,0,1,195.72114,25.82822Z" style="fill: #2c4968"/>
          <path d="M196.02266,25.82822h-.35535a1.88617,1.88617,0,0,0-1.88614,1.88614v15.8667a1.8862,1.8862,0,0,0,1.88614,1.88628h.35535Z" style="fill: #112e49"/>
          <path d="M297.37505,25.82822h3.40068a5.44309,5.44309,0,0,1,5.44309,5.44309v8.75294a5.44309,5.44309,0,0,1-5.44309,5.44309h-3.40068a1.94,1.94,0,0,1-1.94-1.94V27.76819A1.94,1.94,0,0,1,297.37505,25.82822Z" transform="translate(601.65391 71.29556) rotate(180)" style="fill: #2c4968"/>
          <path d="M304.33269,25.82822h-.41484V45.46734h.41484a1.8862,1.8862,0,0,0,1.88614-1.88628V27.71436A1.88617,1.88617,0,0,0,304.33269,25.82822Z" style="fill: #112e49"/>
        </g>
        <g>
          <path d="M332.26189,92.1053c0,24.34018-21.75132,46.327-54.13028,54.71328a114.04195,114.04195,0,0,1-56.266-.00073C189.49,138.4323,167.73739,116.44548,167.73739,92.1053H157.862c0,28.9121,24.72586,54.7407,61.52451,64.27181q4.01386,1.04232,8.13048,1.80082a21.4581,21.4581,0,0,1,17.54535,21.114V401.46149h9.87543V179.292a21.45838,21.45838,0,0,1,17.54591-21.1142q4.11225-.75828,8.12787-1.8c36.80009-9.53183,61.52595-35.36043,61.52595-64.27253Z" style="fill: #2c4968"/>
          <rect x="245.0623" y="361.67366" width="9.87543" height="39.78784" style="fill: #102b44"/>
          <g>
            <circle cx="249.61919" cy="430.48322" r="43.68857" style="fill: #2c4968"/>
            <path d="M280.51167,399.59074A43.48019,43.48019,0,0,0,257.75959,387.56a43.68937,43.68937,0,0,1-22.21013,84.28617,43.68983,43.68983,0,0,0,44.96221-72.25544Z" style="fill: #102b44"/>
            <path d="M221.08659,462.44842a43.69066,43.69066,0,0,1,47.71968-71.21393,43.68943,43.68943,0,1,0-36.01586,79.56944A43.60431,43.60431,0,0,1,221.08659,462.44842Z" style="fill: #f0f0f0;opacity: 0.68;mix-blend-mode: overlay"/>
            <circle cx="249.61912" cy="430.48329" r="22.19389" style="fill: #102b44"/>
          </g>
        </g>
        <g>
          <path d="M286.85466,68.53283l-.00145-.00145a22.50919,22.50919,0,0,0-31.83627.00334l-6.8108,6.81369-6.81558-6.81572a22.5126,22.5126,0,0,0-31.83758,0v.00014a22.51244,22.51244,0,0,0,0,31.83744l6.81558,6.81573h0l25.64114,25.64113a8.76317,8.76317,0,0,0,12.39289,0L280.04373,107.186h0l6.81093-6.81094A22.516,22.516,0,0,0,286.85466,68.53283Z" style="fill: #f96e6e"/>
          <path d="M286.85466,68.53269l-.00145-.00131a22.49368,22.49368,0,0,0-23.7312-5.17393,38.63367,38.63367,0,0,1-34.80108,55.37667c-.13915,0-.276-.00914-.41484-.01059l14.10361,14.1036a8.76317,8.76317,0,0,0,12.39289,0L280.04373,107.186l6.81093-6.81109A22.516,22.516,0,0,0,286.85466,68.53269Z" style="fill: #e25a5a"/>
          <circle cx="224.65428" cy="85.03144" r="18.41159" style="fill: #fff;opacity: 0.21;mix-blend-mode: overlay"/>
        </g>
      </g>
    </g>
  </g>
</svg>
